PathFileType	4	(X/Y/Z)	C:/Users/beibeiliu/ov580/test_trc\sequence.38_training_dense_right.trc
DataRate	CameraRate	NumFrames	NumMarkers	Units	OrigDataRate	OrigDataStartFrame	OrigNumFrames
120	120	18	19	mm	120	79	312
Frame#	Time	ThumbCMC			ThumbMCP			ThumbIP			ThumbTip			IndexMCP			IndexPIP			IndexTip			MiddleMCP			MiddlePIP			MiddleTip			RingMCP			RingPIP			RingTip			PinkyMCP			PinkyPIP			PinkyTip			BackHand1			BackHand2			BackHand3	
		X0	Y0	Z0	X1	Y1	Z1	X2	Y2	Z2	X3	Y3	Z3	X4	Y4	Z4	X5	Y5	Z5	X6	Y6	Z6	X7	Y7	Z7	X8	Y8	Z8	X9	Y9	Z9	X10	Y10	Z10	X11	Y11	Z11	X12	Y12	Z12	X13	Y13	Z13	X14	Y14	Z14	X15	Y15	Z15	X16	Y16	Z16	X17	Y17	Z17	X18	Y18	Z18	
78	0.65	175.881	-54.9886	28.4298	174.46	-74.3013	7.58488	174.806	-81.3883	-21.28	184.055	-82.7012	-40.2949	187.447	-58.8585	-36.7814	205.748	-82.1219	-35.6192	209.962	-77.3738	-5.38026	203.898	-51.3991	-37.2613	225.866	-71.58	-27.3703	218.17	-66.3232	3.87157	223.226	-44.7897	-30.9539	232.993	-63.2093	-12.3988	219.377	-55.2951	10.0236	233.796	-35.4983	-23.1638	239.553	-51.6081	-8.91241	222.046	-50.3911	11.8962	196.202	-11.5365	-0.846929	192.244	-7.63036	27.374	176.744	-25.7836	12.9083	
79	0.658333	179.314	-57.4048	26.1388	179.003	-77.0556	5.50608	184.165	-82.6733	-13.9568	190.841	-85.2242	-37.3067	189.243	-63.5232	-39.4823	212.698	-78.4352	-35.3064	211.52	-79.2841	-6.03897	204.611	-52.2394	-37.6851	226.622	-70.7028	-28.4929	216.965	-64.3593	5.7766	219.559	-41.6902	-30.4526	232.657	-62.109	-13.4948	219.962	-52.5207	10.8642	234.4	-31.3266	-24.3511	236.366	-50.998	-11.3056	224.561	-47.404	14.1134	195.265	-11.5047	1.01554	191.284	-9.09206	25.6293	176.6	-29.0177	15.9156	
80	0.666667	181.94	-58.7538	27.4057	185.209	-79.5043	3.23074	190.289	-86.3011	-16.7424	197.969	-92.8169	-37.7265	192.034	-60.4779	-40.3838	213.58	-78.5868	-36.731	216.996	-76.2113	-6.77665	208.506	-50.9351	-37.999	231.028	-67.0992	-27.9549	221.663	-64.9284	3.48622	220.861	-39.767	-31.3221	233.773	-58.5867	-15.9039	222.179	-53.5857	10.3893	230.557	-29.7218	-24.564	239.623	-47.6247	-8.21335	224.123	-43.1875	13.7564	193.694	-12.9468	1.41767	192.694	-9.80399	26.9755	177.346	-30.7872	16.6946	
81	0.675	185.562	-60.3537	26.0188	191.505	-80.1556	4.5165	195.377	-88.6134	-16.4811	205.685	-87.6691	-36.2993	190.867	-64.0999	-39.6778	214.724	-78.2161	-36.8685	218.888	-74.344	-5.96006	211.684	-50.1051	-40.774	232.607	-65.3334	-26.2152	222.825	-63.1801	2.54511	223.8	-39.3054	-32.6955	235.214	-58.6126	-14.8665	226.755	-49.7334	11.0462	232.428	-28.9134	-24.9261	241.809	-44.7041	-9.11588	227.354	-45.0155	12.387	195.107	-12.3531	2.87039	194.629	-6.66978	28.191	179.838	-28.1988	15.1786	
82	0.683333	186.812	-62.6356	24.3347	195.214	-79.8821	3.4384	200.599	-86.1233	-18.9358	211.417	-88.0966	-38.5878	195.023	-60.9002	-41.0927	216.438	-75.2153	-39.4204	222.507	-70.8981	-11.9726	209.58	-49.0686	-40.0289	230.414	-67.1486	-33.3295	224.141	-60.623	2.52606	224.866	-39.6711	-33.5573	236.244	-56.8705	-15.3003	228.656	-51.1439	7.3077	231.271	-25.3025	-25.7397	243.467	-43.0723	-10.6083	229.543	-44.7566	9.84369	196.796	-10.7434	-2.41332	193.316	-8.05956	24.9773	180.429	-30.2148	12.6084	
83	0.691667	190.934	-57.9256	24.7961	199.374	-80.6029	2.43828	204.969	-87.9383	-16.3846	216.885	-89.8143	-38.2847	193.933	-57.8396	-40.5119	218.13	-76.2586	-38.9813	220.795	-71.7942	-8.82189	211.577	-45.3731	-41.3122	233.473	-63.8076	-33.7504	227.876	-60.9734	-1.4627	222.858	-36.9548	-33.2495	239.891	-53.0726	-20.6055	227.171	-51.6343	7.00245	235.467	-27.4031	-26.3479	242.136	-44.4821	-10.903	229.987	-44.0162	8.3816	199.415	-7.47836	-1.11918	199.063	-4.70332	28.7018	180.978	-26.9669	13.4251	
84	0.7	192.645	-58.3482	24.1492	203.543	-76.7793	2.18672	210.15	-89.078	-18.6272	222.577	-88.6298	-35.377	192.218	-61.511	-41.6146	218.235	-73.198	-41.1196	221.99	-70.7614	-11.714	210.64	-46.5373	-40.0136	235.378	-65.2946	-32.0504	229.322	-58.3898	-0.428959	225.644	-39.4903	-35.6049	244.002	-52.3205	-20.1583	229.148	-52.4971	4.06098	234.712	-21.8864	-26.0056	247.643	-41.9437	-13.3612	230.601	-44.0511	5.67576	197.928	-11.8854	-2.33225	198.733	-5.90952	25.7558	184.17	-26.6346	12.2304	
85	0.708333	194.489	-58.4481	22.2982	207.541	-78.5279	3.57756	216.386	-85.1784	-17.4837	228.624	-91.4147	-35.1099	193.528	-58.1888	-39.5407	217.57	-73.8585	-44.1544	224.217	-72.3075	-13.1521	212.827	-49.8273	-43.0093	236.091	-62.7647	-36.8303	229.688	-60.0442	-1.16732	230.181	-35.6602	-35.4922	241.747	-54.1451	-23.1942	233.708	-49.2347	5.27605	237.747	-25.3776	-26.6511	247.555	-42.3403	-14.6647	228.804	-42.245	5.99296	199.874	-11.2399	1.09702	201.18	-6.66274	29.4088	185.386	-25.8533	16.8157	
86	0.716667	195.888	-60.8845	22.6489	211.07	-80.9626	6.05244	219.863	-89.4934	-17.8654	233.416	-92.1726	-33.7456	195.955	-59.8259	-42.1774	217.586	-72.7229	-45.7259	227.283	-70.7911	-13.2359	213.767	-46.7123	-42.87	238.565	-63.6979	-35.9928	230.917	-61.1577	-3.02832	231.681	-37.0953	-36.5166	242.807	-55.6498	-21.0511	230.628	-51.9984	4.07834	237.35	-24.6939	-26.2419	246.46	-44.5561	-15.1325	232.903	-45.3487	5.35253	201.991	-11.8847	-1.06583	199.318	-5.11159	27.4301	184.106	-27.8463	13.218	
87	0.725	198.185	-60.2352	25.7811	213.351	-79.5322	2.19352	223.732	-89.5056	-17.686	237.934	-88.4756	-37.0206	198.155	-58.8388	-41.7668	219.751	-73.322	-45.8697	228.442	-77.6912	-16.3439	215.524	-49.7036	-43.8761	237.194	-66.0427	-37.1111	236.83	-60.9232	-5.30011	230.431	-37.9369	-36.4897	246.635	-53.3021	-21.079	235.364	-52.096	3.30724	240.235	-23.2805	-26.5881	248.24	-42.5182	-15.321	235.168	-41.3447	8.07625	201.994	-9.66679	0.524907	201.266	-8.03573	25.6393	186.849	-29.0287	16.5122	
88	0.733333	199.69	-60.7391	27.3596	215.552	-82.5077	5.59525	225.709	-86.7438	-14.3183	240.153	-84.5521	-33.7979	199.703	-58.9257	-40.138	224.925	-73.9523	-44.2028	229.474	-76.0167	-13.8515	218.992	-47.1356	-43.8434	240.811	-63.6997	-38.5091	237.738	-63.4104	-4.10037	231.126	-41.3758	-35.5644	246.729	-55.8729	-19.6213	237.259	-49.3246	7.12079	238.505	-24.7435	-26.6895	251.498	-43.1227	-13.1593	235.114	-42.3867	9.40734	202.975	-14.7405	-2.59772	200.055	-10.0486	24.2907	186.083	-30.9033	14.6803	
89	0.741667	199.87	-60.9646	22.1498	216.609	-80.6971	6.17192	227.209	-89.2148	-15.4987	241.443	-86.1592	-30.31	200.612	-61.0876	-39.6339	221.225	-77.4138	-45.216	233.795	-74.1077	-14.5317	219.21	-47.5968	-41.5931	242.037	-67.0833	-35.7504	236.839	-64.4447	-3.47495	233.24	-41.4285	-35.37	249.524	-54.1162	-21.3305	238.292	-54.505	4.59817	243.755	-24.807	-25.7497	252.109	-44.1429	-15.5215	240.701	-46.2141	8.05606	205.975	-11.3433	0.332451	203.934	-7.33508	24.3875	185.561	-31.8859	12.1023	
90	0.75	199.675	-62.3171	24.9125	216.229	-82.8498	3.82298	227.587	-89.9838	-17.6053	244.305	-89.4177	-33.284	200.167	-64.012	-41.2594	224.176	-74.9793	-44.9083	232.475	-78.2157	-16.3011	219.195	-47.3773	-41.2137	241.815	-68.0525	-36.2416	241.145	-65.9475	-4.99515	234.834	-37.9402	-34.4962	249.56	-57.6679	-18.1803	239.033	-52.9895	6.72651	243.143	-25.9848	-24.6668	255.365	-44.2336	-12.1844	241.199	-47.1141	6.5235	205.755	-14.4653	-2.76332	202.553	-10.4228	29.0859	185.621	-32.0875	12.532	
91	0.758333	200.459	-59.0442	23.4028	215.83	-82.7854	2.95476	228.216	-87.7234	-11.7052	243.429	-91.0795	-31.35	203.205	-60.5528	-41.0205	226.029	-78.6175	-42.0687	232.092	-77.4679	-14.2796	221.014	-49.3658	-41.7643	244.422	-68.9048	-33.3435	239.894	-65.6713	-3.13282	235.455	-40.8272	-35.4081	252.669	-57.5462	-18.1617	240.67	-56.3122	4.25014	246.644	-24.4981	-24.6761	254.477	-46.4531	-11.9005	241.995	-48.4171	6.77476	207.037	-12.7052	-3.37128	204.545	-7.70977	26.8394	188.045	-31.1762	15.0633	
92	0.766667	200.039	-60.8775	21.5764	217.156	-78.0769	4.30838	227.937	-89.6098	-12.9934	242.876	-86.3094	-30.6496	202.07	-62.6926	-40.3929	226.217	-79.2659	-42.4832	233.037	-76.3088	-14.2659	220.511	-49.3015	-42.4006	242.48	-69.6705	-34.8931	243.474	-63.6031	-5.01361	234.657	-41.0993	-34.9468	251.969	-56.6308	-23.849	241.778	-53.5273	7.23808	247.962	-27.8355	-26.5771	254.886	-45.9321	-16.9311	241.064	-49.5687	7.33143	207.951	-11.6112	-1.74698	205.857	-6.1819	27.9469	190.186	-30.995	14.5329	
93	0.775	200.024	-60.1119	22.3523	216.876	-81.5277	5.62444	227.674	-88.5651	-17.5173	243.538	-91.281	-33.2586	201.724	-61.3043	-40.1466	223.574	-79.2822	-44.4709	233.525	-74.564	-14.2957	217.596	-49.4179	-41.5552	245.654	-66.6304	-34.8013	240.208	-65.0784	-4.04345	235.759	-40.4501	-35.3537	250.86	-56.2779	-24.1392	243.232	-58.7737	1.50685	245.62	-26.9361	-25.8885	256.693	-45.5143	-15.892	242.694	-48.8169	6.92223	209.328	-10.3026	-3.18902	204.455	-10.3775	29.6927	187.844	-30.0642	11.2949	
94	0.783333	201.271	-59.0463	25.4248	216.283	-80.7616	7.25398	227.025	-90.1662	-16.8371	243.792	-86.9955	-35.0678	204.092	-58.9657	-41.4336	226.855	-76.4963	-43.4755	231.543	-78.6095	-14.9213	219.789	-48.6267	-43.0443	244.199	-66.9587	-35.4165	239.893	-64.0638	-3.71919	236.862	-38.6902	-36.5771	252.395	-54.9888	-23.5489	246.017	-55.9401	3.53321	241.988	-25.998	-25.1708	253.908	-46.4818	-17.4297	241.06	-49.2194	7.94285	210.408	-11.0837	-1.9958	206.593	-8.45434	23.8358	186.972	-30.2611	15.5641	
95	0.791667	199.575	-62.0378	22.9143	214.478	-82.8472	5.44367	226.434	-90.4402	-19.2516	240.509	-86.0786	-33.5247	200.657	-59.7313	-40.1179	225.753	-75.6777	-44.414	230.791	-77.7553	-15.9985	221.054	-44.9173	-41.698	243.472	-67.2503	-37.111	241.641	-63.5427	-4.85822	234.2	-38.4914	-35.3558	250.487	-56.6561	-23.6834	243.32	-55.9931	3.68887	243.615	-27.4082	-26.3713	254.795	-46.822	-14.373	242.681	-47.7588	5.96526	207.453	-11.7114	-1.17768	205.463	-8.06942	25.2009	190.017	-28.2358	10.9408	
